mtllib materials.mtl
v 0.004444465 -0.1283334 0.1199999
v -0.02555552 -0.1283334 0.1199999
v -0.02555558 0.1916666 0.1199999
v 0.004444435 0.1916666 0.1199999
v 0.00444448 -0.1283334 0.07999986
v 0.004444465 0.1916666 0.07999992
v -0.02555558 0.1916666 0.07999992
v -0.02555555 -0.1283334 0.07999986
v 0.004444435 -0.1283333 -0.08000004
v -0.02555555 -0.1283333 -0.08000004
v -0.02555561 0.1916667 -0.08000004
v 0.004444405 0.1916667 -0.08000004
v 0.00444445 -0.1283333 -0.12
v 0.004444435 0.1916667 -0.12
v -0.02555561 0.1916667 -0.12
v -0.02555558 -0.1283333 -0.12
v 0.00444448 -0.08833331 0.1200001
v -0.02555552 -0.08833331 0.1200001
v -0.02555549 -0.08833331 -0.12
v 0.00444451 -0.08833331 -0.12
v 0.00444451 -0.1283333 0.1200001
v 0.00444454 -0.1283333 -0.12
v -0.02555549 -0.1283333 -0.12
v -0.02555555 -0.1283333 0.1200001
v 0.004444391 0.1916667 0.1200001
v -0.02555561 0.1916667 0.1200001
v -0.02555558 0.1916667 -0.12
v 0.00444442 0.1916667 -0.12
v 0.00444442 0.1516668 0.1200001
v 0.00444445 0.1516668 -0.12
v -0.02555558 0.1516666 -0.12
v -0.02555564 0.1516668 0.1200001
v -0.005555525 -0.1283333 0.00999999
v -0.01555549 -0.1283333 0.00999999
v -0.01555556 0.1916667 0.00999999
v -0.005555555 0.1916668 0.00999999
v -0.005555481 -0.1283333 -0.01000005
v -0.005555496 0.1916667 -0.00999999
v -0.01555553 0.1916667 -0.00999999
v -0.01555549 -0.1283333 -0.00999999
v -0.00555554 0.04166675 0.11
v -0.0155555 0.04166675 0.11
v -0.01555547 0.04166675 -0.11
v -0.005555481 0.04166675 -0.1100001
v -0.005555511 0.02166671 0.11
v -0.005555421 0.02166677 -0.11
v -0.01555544 0.02166677 -0.11
v -0.0155555 0.02166671 0.11
v -0.00555557 0.1516665 0.1200002
v -0.01555559 0.1516665 0.1200002
v -0.01555559 0.1516665 -0.12
v -0.00555557 0.1516665 -0.12
v -0.005555511 -0.08833343 0.1200001
v -0.005555496 -0.08833343 -0.12
v -0.01555553 -0.08833343 -0.12
v -0.01555559 -0.08833343 0.1200001
v 0.04444441 -0.1283333 0.1199999
v 0.04444444 -0.09833336 0.1199999
v 0.04444446 -0.09833336 -0.1200001
v 0.04444447 -0.1283333 -0.1200001
v 0.00444442 -0.1283333 0.1199999
v 0.00444442 -0.1283334 -0.1200001
v 0.00444442 -0.09833336 -0.1200001
v 0.00444442 -0.0983333 0.1199999
v 0.05444446 -0.08833325 0.1199999
v 0.04444444 -0.08833325 0.1199999
v 0.04444443 -0.08833331 -0.1200001
v 0.05444443 -0.08833331 -0.1200001
v 0.05444449 -0.1283333 0.12
v 0.05444446 -0.1283333 -0.1200001
v 0.04444443 -0.1283333 -0.1200001
v 0.04444441 -0.1283333 0.1199999
vn -1.192093E-07 -1.748456E-07 1
vn 1.192093E-07 1.748456E-07 -1
vn 1.748456E-07 -1 -1.748456E-07
vn -1.748456E-07 1 1.748456E-07
vn 1 1.748456E-07 1.192093E-07
vn -1 -1.748456E-07 -1.192093E-07
vn -1.192093E-07 -1.748456E-07 1
vn 1.192093E-07 1.748456E-07 -1
vn 1.748456E-07 -1 -1.748456E-07
vn -1.748456E-07 1 1.748456E-07
vn 1 1.748456E-07 1.192093E-07
vn -1 -1.748456E-07 -1.192093E-07
vn -1.192093E-07 1 1.788139E-07
vn 1.192093E-07 -1 -1.788139E-07
vn -1.788139E-07 -1.192093E-07 1
vn 1.788139E-07 1.192093E-07 -1
vn 1 5.960464E-08 2.384186E-07
vn -1 -5.960464E-08 -2.384186E-07
vn -1.192093E-07 1 1.788139E-07
vn 1.192093E-07 -1 -1.788139E-07
vn -1.788139E-07 -1.192093E-07 1
vn 1.788139E-07 1.192093E-07 -1
vn 1 5.960464E-08 2.384186E-07
vn -1 -5.960464E-08 -2.384186E-07
vn -1.192093E-07 -1.748456E-07 1
vn 1.192093E-07 1.748456E-07 -1
vn 1.748456E-07 -1 -1.748456E-07
vn -1.748456E-07 1 1.748456E-07
vn 1 1.748456E-07 1.192093E-07
vn -1 -1.748456E-07 -1.192093E-07
vn -1.192093E-07 1 1.788139E-07
vn 1.192093E-07 -1 -1.788139E-07
vn -1.788139E-07 -1.192093E-07 1
vn -1.074372E-05 1.191909E-07 -1
vn 1 5.960464E-08 2.384186E-07
vn -1 -5.960464E-08 -2.384186E-07
vn -1.192093E-07 1 1.788139E-07
vn 1.192093E-07 -1 -1.788139E-07
vn -1.788139E-07 -1.192093E-07 1
vn 1.788139E-07 1.192093E-07 -1
vn 1 5.960464E-08 2.384186E-07
vn -1 -5.960464E-08 -2.384186E-07
vn 1 5.960462E-08 1.78814E-07
vn -1 -5.960462E-08 -1.78814E-07
vn -1.78814E-07 1.192093E-07 1
vn 1.78814E-07 -1.192093E-07 -1
vn 5.960462E-08 -1 1.192093E-07
vn -5.960462E-08 1 -1.192093E-07
vn -1.192093E-07 1 1.192093E-07
vn 1.192093E-07 -1 -1.192093E-07
vn 0 0 1
vn 0 0 -1
vn 1 0 1.192093E-07
vn -1 0 -1.192093E-07
usemtl mat21
f 4//1 3//1 2//1 1//1
f 8//2 7//2 6//2 5//2
f 2//3 8//3 5//3 1//3
f 6//4 7//4 3//4 4//4
f 5//5 6//5 4//5 1//5
f 3//6 7//6 8//6 2//6
f 12//7 11//7 10//7 9//7
f 16//8 15//8 14//8 13//8
f 10//9 16//9 13//9 9//9
f 14//10 15//10 11//10 12//10
f 13//11 14//11 12//11 9//11
f 11//12 15//12 16//12 10//12
f 20//13 19//13 18//13 17//13
f 24//14 23//14 22//14 21//14
f 18//15 24//15 21//15 17//15
f 22//16 23//16 19//16 20//16
f 21//17 22//17 20//17 17//17
f 19//18 23//18 24//18 18//18
f 28//19 27//19 26//19 25//19
f 32//20 31//20 30//20 29//20
f 26//21 32//21 29//21 25//21
f 30//22 31//22 27//22 28//22
f 29//23 30//23 28//23 25//23
f 27//24 31//24 32//24 26//24
f 36//25 35//25 34//25 33//25
f 40//26 39//26 38//26 37//26
f 34//27 40//27 37//27 33//27
f 38//28 39//28 35//28 36//28
f 37//29 38//29 36//29 33//29
f 35//30 39//30 40//30 34//30
f 44//31 43//31 42//31 41//31
f 48//32 47//32 46//32 45//32
f 42//33 48//33 45//33 41//33
f 46//34 47//34 43//34 44//34
f 45//35 46//35 44//35 41//35
f 43//36 47//36 48//36 42//36
f 60//43 59//43 58//43 57//43
f 64//44 63//44 62//44 61//44
f 58//45 64//45 61//45 57//45
f 62//46 63//46 59//46 60//46
f 61//47 62//47 60//47 57//47
f 59//48 63//48 64//48 58//48
f 68//49 67//49 66//49 65//49
f 72//50 71//50 70//50 69//50
f 66//51 72//51 69//51 65//51
f 70//52 71//52 67//52 68//52
f 69//53 70//53 68//53 65//53
f 67//54 71//54 72//54 66//54
usemtl mat24
f 52//37 51//37 50//37 49//37
f 56//38 55//38 54//38 53//38
f 50//39 56//39 53//39 49//39
f 54//40 55//40 51//40 52//40
f 53//41 54//41 52//41 49//41
usemtl mat3
f 51//42 55//42 56//42 50//42
